<?xml version="1.0" encoding="UTF-8"?>
<svg width="33px" height="32px" viewBox="0 0 33 32" version="1.1" xmlns="http://www.w3.org/2000/svg" xmlns:xlink="http://www.w3.org/1999/xlink">
    <title>Fill 1</title>
    <g id="home" stroke="none" stroke-width="1" fill="none" fill-rule="evenodd">
        <g id="Tablet" transform="translate(-598.000000, -3562.000000)" fill="#ffffff">
            <g id="all-articles" transform="translate(552.000000, 3552.000000)">
                <g id="Group-3" transform="translate(0.000000, 0.311703)">
                    <g transform="translate(-39.683274, -89.891429)" id="Fill-1">
                        <path d="M112.683274,115.151113 C112.683274,115.151113 113.645369,114.049232 115.530921,113.686969 C117.416342,113.324295 118.683274,113.997774 118.683274,113.997774 C118.683274,113.997774 117.71288,115.114613 115.837832,115.474817 C113.962783,115.835296 112.683274,115.151113 112.683274,115.151113 Z M110.683274,115.997936 C110.683274,115.997936 111.950308,115.32452 113.835689,115.686749 C115.721199,116.049115 116.683274,117.151031 116.683274,117.151031 C116.683274,117.151031 115.403663,117.835287 113.528785,117.474842 C111.653776,117.114397 110.683274,115.997936 110.683274,115.997936 Z M112.683274,112.579725 C112.683274,112.579725 112.886752,111.240793 114.136789,109.990754 C115.386708,108.740961 116.683274,108.579725 116.683274,108.579725 C116.683274,108.579725 116.478851,109.903331 115.222083,111.160359 C113.96496,112.417386 112.683274,112.579725 112.683274,112.579725 Z M110.785559,110.579725 C110.785559,110.579725 110.444769,109.134468 111.007285,107.259451 C111.569693,105.384434 112.58522,104.579725 112.58522,104.579725 C112.58522,104.579725 112.919384,106.010257 112.353935,107.895637 C111.788268,109.781016 110.785559,110.579725 110.785559,110.579725 Z M109.465394,104.662431 C110.396542,103.100093 111.67373,102.579725 111.67373,102.579725 C111.67373,102.579725 111.828442,103.919877 110.892046,105.491097 C109.9554,107.062071 108.693708,107.579725 108.693708,107.579725 C108.693708,107.579725 108.533872,106.225016 109.465394,104.662431 Z M105.683274,112.579725 C105.683274,112.579725 105.852403,111.291533 107.109417,110.034703 C108.366431,108.777634 109.683274,108.579725 109.683274,108.579725 C109.683274,108.579725 109.515363,109.882529 108.265295,111.132588 C107.015348,112.382529 105.683274,112.579725 105.683274,112.579725 Z M105.694972,116.579725 C105.694972,116.579725 105.527707,115.229601 106.458173,113.667109 C107.38864,112.104616 108.672516,111.579725 108.672516,111.579725 C108.672516,111.579725 108.834746,112.915454 107.899245,114.486559 C106.963618,116.058033 105.694972,116.579725 105.694972,116.579725 Z M105.740627,107.579725 C105.740627,107.579725 105.414622,106.30753 106.317106,104.745126 C107.219733,103.182486 108.62892,102.579725 108.62892,102.579725 C108.62892,102.579725 108.947875,103.838633 108.0405,105.409739 C107.132549,106.980962 105.740627,107.579725 105.740627,107.579725 Z M103.245077,106.579725 C103.245077,106.579725 102.465488,105.341467 102.743003,103.466378 C103.020518,101.59129 104.133296,100.579725 104.133296,100.579725 C104.133296,100.579725 104.901293,101.806012 104.622204,103.691399 C104.343114,105.576786 103.245077,106.579725 103.245077,106.579725 Z M100.756525,102.70615 C100.450922,100.831198 101.20037,99.5797252 101.20037,99.5797252 C101.20037,99.5797252 102.301359,100.569706 102.608517,102.455107 C102.915533,104.340637 102.177676,105.579725 102.177676,105.579725 C102.177676,105.579725 101.061986,104.58123 100.756525,102.70615 Z M98.0186462,104.908696 C97.4504491,103.033653 97.7762355,101.579725 97.7762355,101.579725 C97.7762355,101.579725 98.771277,102.369829 99.3425819,104.25527 C99.9137796,106.140847 99.5941018,107.579725 99.5941018,107.579725 C99.5941018,107.579725 98.586629,106.783738 98.0186462,104.908696 Z M95.4914183,105.5137 C94.5576525,103.951091 94.6896915,102.579725 94.6896915,102.579725 C94.6896915,102.579725 95.9274515,103.080648 96.8662068,104.651859 C97.8052055,106.222946 97.6774257,107.579725 97.6774257,107.579725 C97.6774257,107.579725 96.4249407,107.076185 95.4914183,105.5137 Z M99.683274,112.579725 C99.683274,112.579725 98.3512404,112.382529 97.1012099,111.132588 C95.8513013,109.882529 95.683274,108.579725 95.683274,108.579725 C95.683274,108.579725 97.0001986,108.777634 98.2571744,110.034703 C99.5141501,111.291533 99.683274,112.579725 99.683274,112.579725 Z M96.4582512,114.492198 C95.527816,112.930029 95.6949495,111.579725 95.6949495,111.579725 C95.6949495,111.579725 96.963679,112.101638 97.8991483,113.672789 C98.8347434,115.244185 98.6725182,116.579725 98.6725182,116.579725 C98.6725182,116.579725 97.3886863,116.05486 96.4582512,114.492198 Z M93.7500128,106.6999 C93.4575024,104.825037 94.2212718,103.579725 94.2212718,103.579725 C94.2212718,103.579725 95.3212077,104.575795 95.6151402,106.461354 C95.9090727,108.346914 95.1568217,109.579725 95.1568217,109.579725 C95.1568217,109.579725 94.0423811,108.574892 93.7500128,106.6999 Z M90.0532972,108.090357 C88.8032575,106.840479 88.683274,105.579725 88.683274,105.579725 C88.683274,105.579725 90.0474506,105.818986 91.3044808,107.075962 C92.5615111,108.332938 92.683274,109.579725 92.683274,109.579725 C92.683274,109.579725 91.3033369,109.340465 90.0532972,108.090357 Z M87.683274,108.592294 C87.683274,108.592294 89.0129961,108.419652 90.5842741,109.354052 C92.1554295,110.288579 92.683274,111.5661 92.683274,111.5661 C92.683274,111.5661 91.3390905,111.743954 89.7765139,110.814512 C88.2139373,109.885325 87.683274,108.592294 87.683274,108.592294 Z M91.683274,114.151031 C91.683274,114.151031 90.403765,114.835287 88.5287164,114.474842 C86.6536678,114.114397 85.683274,112.997936 85.683274,112.997936 C85.683274,112.997936 86.9503354,112.32452 88.8357571,112.686749 C90.7211787,113.049389 91.683274,114.151031 91.683274,114.151031 Z M87.683274,117.151212 C87.683274,117.151212 88.6453694,116.049169 90.530791,115.686761 C92.4163423,115.324491 93.683274,115.997984 93.683274,115.997984 C93.683274,115.997984 92.7128803,117.114436 90.8379613,117.474922 C88.9629127,117.835134 87.683274,117.151212 87.683274,117.151212 Z M95.0303594,131.579725 C97.9206992,131.579725 99.7416844,129.347096 99.7416844,126.383699 C99.7416844,126.269492 99.7369914,126.156326 99.7301423,126.04381 C99.7301423,126.040818 99.7303959,126.037956 99.7303959,126.034965 C99.7303959,115.651888 88.4435099,111.999086 87.8097101,111.685603 C87.8073002,111.683131 87.8060319,111.68079 87.8037488,111.678318 C87.8019731,111.677538 87.7999438,111.677798 87.798168,111.677278 C87.6822399,111.633052 87.6483747,111.430783 87.7227006,111.225783 C87.7892895,111.041595 87.9199307,110.918673 88.0297707,110.926478 C88.0301512,110.925307 88.0309122,110.924006 88.0312927,110.922445 C88.037254,110.925307 88.0432153,110.927778 88.0493034,110.93038 C88.055011,110.931551 88.061226,110.931551 88.0669336,110.933632 C88.0772073,110.937664 88.0860859,110.944038 88.0949644,110.950412 C90.1465374,111.85132 92.5758282,112.864484 93.0594541,112.854078 C93.5069317,112.881524 93.593307,112.632558 93.5806234,112.391917 C93.544602,111.951088 93.6136008,110.611693 92.0684841,106.875123 C92.0284039,106.755192 92.1596792,106.600532 92.3616022,106.52964 C92.563652,106.458488 92.7599942,106.498031 92.8000744,106.617962 C93.8703169,109.408228 95.9081917,114.856992 98.4421222,117.298263 C98.8940391,117.733628 100.115217,117.929523 100.322086,116.698872 C100.47746,115.7752 100.692828,114.317956 100.042539,112.079994 C99.3349212,109.644836 97.4224872,108.107335 96.8824194,107.575843 C96.8829267,107.575323 96.883434,107.574803 96.8840682,107.574282 C96.878868,107.5709 96.8729067,107.568949 96.8682137,107.564917 C96.7734672,107.483619 96.8077129,107.281351 96.9448227,107.113422 C97.0818056,106.945754 97.2697766,106.875383 97.3645232,106.95668 C97.3707381,106.962013 97.3746701,106.969168 97.3797435,106.975151 C97.3803777,106.974501 97.381646,106.97294 97.381646,106.97294 C97.381646,106.97294 100.092259,109.868958 100.39489,110.125728 C100.572714,110.276617 101.023363,110.280519 101.023616,109.775953 C101.023616,109.775953 101.095786,109.015007 100.574997,106.766379 C100.201085,105.151092 99.553967,102.902984 99.553967,102.902984 L99.5561232,102.902724 C99.5559964,102.901683 99.5553622,102.900903 99.5552354,102.899862 C99.5301218,102.775639 99.6787737,102.638539 99.8879263,102.593793 C100.096952,102.549307 100.286953,102.613824 100.31232,102.738047 C100.31232,102.738047 100.838689,104.75631 101.231754,105.982669 C101.645113,107.272505 101.871135,107.848613 102.156262,108.424071 C102.35958,108.834331 102.873266,108.733782 103.000102,108.510181 C103.087873,108.355781 103.332032,107.859019 103.868802,106.178174 C104.315519,104.780114 104.697169,103.362543 104.697169,103.362543 C104.746001,103.245865 104.944753,103.22102 105.140841,103.307391 C105.337183,103.393501 105.45679,103.557918 105.408212,103.674466 C105.407704,103.675507 105.406943,103.676027 105.406563,103.677068 L105.408719,103.678108 C105.408719,103.678108 104.254511,107.355234 103.970271,108.916149 C103.895565,109.372977 104.384137,109.601131 104.629058,109.331613 C106.252179,107.545015 107.445452,105.962768 107.445452,105.962768 C107.445452,105.962768 107.44672,105.964068 107.447482,105.965109 C107.451921,105.958475 107.455345,105.950801 107.461053,105.945207 C107.54857,105.855845 107.741741,105.908656 107.892676,106.063447 C108.043484,106.218368 108.089399,106.411141 108.007589,106.506226 C104.910634,110.09529 104.562976,110.821116 103.771012,112.908189 C103.199108,114.414732 103.201138,115.7752 103.273307,116.456539 C103.356512,117.244932 104.113216,118.262908 105.188151,117.223599 C107.319631,115.162931 110.242694,112.078433 112.658921,107.77421 C112.724749,107.667027 112.924769,107.674831 113.105384,107.79177 C113.285998,107.908318 113.379096,108.090035 113.313141,108.197218 C111.77221,110.758549 110.592508,112.498319 110.501186,112.639582 C110.298502,112.953586 110.475185,113.338221 110.974411,113.252111 C111.559252,113.151302 114.118297,112.089619 115.285315,111.524828 C115.399848,111.477611 115.557632,111.603524 115.637666,111.806574 C115.717699,112.009623 115.689668,112.212541 115.575009,112.260019 C112.838774,113.380496 103.768729,116.144356 103.768729,126.383699 C103.768729,126.421551 103.769617,126.458753 103.771519,126.495305 C103.829483,129.397306 105.611783,131.563206 108.452404,131.578945 L108.453545,131.579725 L95.0303594,131.579725 Z" transform="translate(102.183274, 115.579725) scale(-1, 1) translate(-102.183274, -115.579725) "></path>
                    </g>
                </g>
            </g>
        </g>
    </g>
</svg>