<?xml version="1.0" encoding="UTF-8"?>
<svg width="309px" height="146px" viewBox="0 0 309 146" version="1.1" xmlns="http://www.w3.org/2000/svg" xmlns:xlink="http://www.w3.org/1999/xlink">
    <title>Combined Shape</title>
    <g id="symbols" stroke="none" stroke-width="1" fill="none" fill-rule="evenodd">
        <g id="Group-31" fill="#003B5C">
            <path d="M97.9557,116.0981 C100.0827,116.0981 101.6577,116.4811 103.0177,117.2861 C103.0177,117.2861 103.8817,117.6451 104.9737,118.7051 L104.9737,123.0351 L103.0177,123.0351 L103.0177,120.0131 C100.8487,118.5641 99.7837,118.1401 98.0817,118.1401 C95.1897,118.1401 93.3177,119.8871 93.3177,122.5221 C93.3177,124.6941 94.5507,125.9291 99.8687,128.9901 C105.1897,132.0561 106.7207,133.9281 106.7207,137.4171 C106.7207,141.8431 103.0607,145.2461 98.2537,145.2461 C95.5707,145.2461 93.8247,144.6931 91.6997,143.3301 L91.6997,145.0771 L89.6977,145.0771 L89.6977,137.4171 L91.6997,137.4171 L91.6997,140.7811 C94.2957,142.5241 95.4447,142.9471 97.3177,142.9471 C100.7197,142.9471 103.0177,141.1631 103.0177,138.4791 C103.0177,136.0561 101.3587,134.2671 96.7647,131.8861 C91.4017,129.0771 89.5707,126.9491 89.5707,123.4601 C89.5707,119.2441 93.1467,116.0981 97.9557,116.0981 Z M121.057,123.1023 C123.143,123.1023 124.589,123.3903 126.454,124.1943 L126.492953,124.213862 C126.694951,124.317028 127.635889,124.818856 128.211,125.4953 L128.219,128.5973 L126.454,128.5973 L126.454,126.5403 C124.621,125.2533 123.594,124.9013 121.89,124.9013 C117.425,124.9013 114.308,128.6273 114.308,133.9633 C114.308,139.1693 117.746,143.2163 122.18,143.2163 C123.785,143.2163 124.946,142.8653 126.454,141.9293 L126.454,139.4923 L128.253,139.4923 L128.253,143.7633 C125.522,144.7603 123.817,145.1123 121.375,145.1123 C114.599,145.1123 109.776,140.5503 109.776,134.1553 C109.776,127.8263 114.599,123.1023 121.057,123.1023 Z M168.3345,123.1023 C174.2445,123.1023 178.9695,127.9523 178.9695,134.0923 C178.9695,140.2263 174.2445,145.1123 168.3345,145.1123 C162.4195,145.1123 157.7305,140.2263 157.7305,134.0923 C157.7305,127.9523 162.4195,123.1023 168.3345,123.1023 Z M192.7524,123.1023 C198.6624,123.1023 203.3874,127.9523 203.3874,134.0923 C203.3874,140.2263 198.6624,145.1123 192.7524,145.1123 C186.8404,145.1123 182.1474,140.2263 182.1474,134.0923 C182.1474,127.9523 186.8404,123.1023 192.7524,123.1023 Z M214.1001,123.4833 L214.1001,124.8383 L211.6881,124.8383 L211.6881,142.7973 L218.5321,142.7973 L218.5321,140.4203 L220.2661,140.4203 L220.2661,144.6933 L205.1001,144.6933 L205.1001,143.3443 L207.5431,143.3443 L207.5431,124.8383 L205.1001,124.8383 L205.1001,123.4833 L214.1001,123.4833 Z M140.8965,123.4833 L140.8965,124.8383 L138.4875,124.8383 L138.4875,133.0003 L148.9325,133.0003 L148.9325,124.8383 L146.5195,124.8383 L146.5195,123.4833 L155.5185,123.4833 L155.5185,124.8383 L153.0745,124.8383 L153.0745,143.3443 L155.5185,143.3443 L155.5185,144.6933 L146.5195,144.6933 L146.5195,143.3443 L148.9325,143.3443 L148.9325,134.8953 L138.4875,134.8953 L138.4875,143.3443 L140.8965,143.3443 L140.8965,144.6933 L131.9015,144.6933 L131.9015,143.3443 L134.3425,143.3443 L134.3425,124.8383 L131.9015,124.8383 L131.9015,123.4833 L140.8965,123.4833 Z M192.7524,124.9333 C189.5374,124.9333 186.6804,129.2383 186.6804,134.0923 C186.6804,138.9743 189.5374,143.2803 192.7524,143.2803 C195.9944,143.2803 198.8564,138.9743 198.8564,134.0923 C198.8564,129.2383 195.9944,124.9333 192.7524,124.9333 Z M168.3345,124.9333 C165.1195,124.9333 162.2605,129.2383 162.2605,134.0923 C162.2605,138.9743 165.1195,143.2803 168.3345,143.2803 C171.5805,143.2803 174.4385,138.9743 174.4385,134.0923 C174.4385,129.2383 171.5805,124.9333 168.3345,124.9333 Z M204.1001,73.0112 L204.1001,74.5882 L200.0981,74.5882 L208.3561,95.4792 L216.5261,74.5882 L213.7151,74.5882 L213.7151,73.0112 L220.9951,73.0112 L220.9951,74.5882 L218.8661,74.5882 L208.2271,101.8222 L206.7821,101.8222 L196.0551,74.5882 L193.5471,74.5882 L193.5471,73.0112 L204.1001,73.0112 Z M83.8113,73.0146 L93.5153,94.7156 L103.5143,73.0146 L110.1523,73.0146 L110.1523,74.5876 L106.9623,74.5876 L106.9623,99.5246 L110.1523,99.5246 L110.1523,101.0986 L103.2093,101.0876 L103.2173,99.5246 L103.2173,78.5876 L92.7903,101.5216 L82.3213,78.1196 L82.3213,101.0986 L76.9603,101.0986 L76.9603,99.5246 L80.1943,99.5246 L80.1943,74.5876 L76.9603,74.5876 L76.9603,73.0146 L83.8113,73.0146 Z M152.9191,79.8886 L160.5361,94.8296 L167.2501,79.8886 L173.6101,79.8886 L173.6101,81.2416 L170.9141,81.2416 L170.9141,99.7496 L173.6101,99.7496 L173.6101,101.0966 L166.7661,101.0966 L166.7701,99.7496 L166.7701,85.8676 L159.7001,101.4186 L151.9541,86.1576 L151.9541,99.7496 L151.9511,101.0966 L147.2321,101.0966 L147.2321,99.7496 L149.9301,99.7496 L149.9301,81.2416 L147.2321,81.2416 L147.2321,79.8886 L152.9191,79.8886 Z M32.3092,79.8886 L32.3092,81.2416 L29.8972,81.2416 L29.8972,89.4026 L40.3412,89.4026 L40.3412,81.2416 L37.9302,81.2416 L37.9302,79.8886 L46.9272,79.8886 L46.9272,81.2416 L44.4882,81.2416 L44.4882,99.7496 L46.9272,99.7496 L46.9272,101.0986 L37.9302,101.0986 L37.9302,99.7496 L40.3412,99.7496 L40.3412,91.2976 L29.8972,91.2976 L29.8972,99.7496 L32.3092,99.7496 L32.3092,101.0986 L23.3122,101.0986 L23.3122,99.7496 L25.7532,99.7496 L25.7532,81.2416 L23.3122,81.2416 L23.3122,79.8886 L32.3092,79.8886 Z M286.2,79.8756 L286.204,84.1006 L284.501,84.1006 L284.501,81.7866 L277.817,81.7866 L277.817,89.3686 L282.96,89.3686 L282.96,87.1836 L284.694,87.1546 L284.694,93.4826 L282.96,93.5176 L282.96,91.2636 L277.817,91.2636 L277.817,99.2016 L284.792,99.2016 L284.792,96.8256 L286.528,96.8256 L286.528,101.0986 L271.231,101.0986 L271.231,99.7496 L273.672,99.7496 L273.672,81.2416 L271.231,81.2416 L271.231,79.8886 L284.469,79.8886 L286.2,79.8756 Z M136.1172,79.2166 L144.0852,99.7496 L145.4352,99.7496 L145.4352,101.0986 L137.5972,101.0986 L137.5972,99.7496 L139.8442,99.7496 L137.8542,94.5416 L130.0442,94.5416 L127.9562,99.7496 L130.5282,99.7496 L130.5282,101.0986 L123.8742,101.0986 L123.8742,99.7496 L125.8682,99.7496 L134.1582,79.2166 L136.1172,79.2166 Z M122.3989,79.8886 L122.3989,81.2416 L119.9879,81.2416 L119.9879,99.7496 L122.3989,99.7496 L122.3989,101.0986 L113.4019,101.0986 L113.4019,99.7496 L115.8439,99.7496 L115.8439,81.2416 L113.4019,81.2416 L113.4019,79.8886 L122.3989,79.8886 Z M185.8715,79.8886 L185.8715,81.2416 L183.4615,81.2416 L183.4615,99.7496 L185.8715,99.7496 L185.8715,101.0986 L176.8755,101.0986 L176.8755,99.7496 L179.3145,99.7496 L179.3145,81.2416 L176.8755,81.2416 L176.8755,79.8886 L185.8715,79.8886 Z M226.3496,79.2166 L234.3166,99.7496 L235.6686,99.7496 L235.6686,101.0986 L227.8286,101.0986 L227.8286,99.7496 L230.0766,99.7496 L228.0846,94.5416 L220.2776,94.5416 L218.1876,99.7496 L220.7566,99.7496 L220.7566,101.0986 L214.1076,101.0986 L214.1076,99.7496 L216.0996,99.7496 L224.3896,79.2166 L226.3496,79.2166 Z M64.7709,79.8726 L64.7879,84.1006 L63.0859,84.1006 L63.0859,81.7866 L56.4029,81.7866 L56.4029,89.3686 L61.5429,89.3686 L61.5429,87.1836 L63.2789,87.1546 L63.2789,93.4826 L61.5429,93.5176 L61.5429,91.2636 L56.4029,91.2636 L56.4029,99.2016 L63.3759,99.2016 L63.3759,96.8256 L65.1099,96.8256 L65.1099,101.0986 L49.8159,101.0986 L49.8159,99.7496 L52.2569,99.7496 L52.2569,81.2416 L49.8159,81.2416 L49.8159,79.8886 L63.0539,79.8886 L64.7709,79.8726 Z M246.6333,79.8886 L246.6333,81.2416 L244.2193,81.2416 L244.2193,99.2016 L251.0653,99.2016 L251.0653,96.8256 L252.8013,96.8256 L252.8013,101.0986 L237.6333,101.0986 L237.6333,99.7496 L240.0763,99.7496 L240.0763,81.2416 L237.6333,81.2416 L237.6333,79.8886 L246.6333,79.8886 Z M263.3853,79.8886 L263.3853,81.2416 L260.9753,81.2416 L260.9753,99.2016 L267.8213,99.2016 L267.8213,96.8256 L269.5533,96.8256 L269.5533,101.0986 L254.3853,101.0986 L254.3853,99.7496 L256.8283,99.7496 L256.8283,81.2416 L254.3853,81.2416 L254.3853,79.8886 L263.3853,79.8886 Z M24.853,73.012 L24.853,77.69 L22.811,77.69 L22.811,75.14 L14.299,75.14 L14.299,99.524 L18.554,99.524 L18.554,101.098 L6.299,101.098 L6.299,99.524 L10.556,99.524 L10.556,75.14 L2.045,75.14 L2.045,77.69 L0.003,77.69 L3.55271368e-15,73.012 L24.853,73.012 Z M294.0333,79.8889 L294.8713,81.2419 L299.4343,88.2799 L303.7073,81.2419 L304.4673,79.8889 L308.4653,79.8889 L308.4653,81.2419 L306.1513,81.2419 L300.7833,90.0439 L300.7833,99.7499 L303.2293,99.7499 L303.2293,101.0979 L294.2293,101.0979 L294.2293,99.7499 L296.6373,99.7499 L296.6373,90.8799 L290.2763,81.2419 L288.2523,81.2419 L288.2523,79.8889 L294.0333,79.8889 Z M134.0612,84.5516 L130.8162,92.5836 L137.1142,92.5836 L134.0612,84.5516 Z M224.2936,84.5516 L221.0496,92.5836 L227.3466,92.5836 L224.2936,84.5516 Z M180.6394,0.0002 L180.6394,52.8122 L163.9444,52.8122 C159.8344,52.7892 157.2584,49.7362 157.1744,45.6442 C157.1714,45.5932 157.1704,45.5402 157.1704,45.4872 C157.1704,31.0512 170.2834,27.1542 174.2384,25.5762 C174.4044,25.5092 174.4474,25.2222 174.3304,24.9372 C174.2154,24.6512 173.9864,24.4732 173.8224,24.5392 C172.1334,25.3372 168.4344,26.8332 167.5884,26.9752 C166.8674,27.0962 166.6114,26.5542 166.9044,26.1122 C167.0354,25.9112 168.7424,23.4592 170.9694,19.8472 C171.0654,19.6972 170.9304,19.4412 170.6704,19.2772 C170.4084,19.1112 170.1194,19.1002 170.0224,19.2522 C166.5294,25.3202 162.3054,29.6692 159.2234,32.5732 C157.6684,34.0392 156.5724,32.6032 156.4534,31.4922 C156.3514,30.5312 156.3464,28.6142 157.1724,26.4892 C158.3184,23.5482 158.8224,22.5252 163.2994,17.4652 C163.4184,17.3302 163.3524,17.0592 163.1334,16.8402 C162.9144,16.6222 162.6354,16.5472 162.5094,16.6742 C162.5004,16.6812 162.4954,16.6922 162.4884,16.7022 C162.4864,16.7002 162.4864,16.6992 162.4864,16.6992 C162.4864,16.6992 160.7604,18.9292 158.4154,21.4482 C158.0604,21.8272 157.3544,21.5062 157.4634,20.8612 C157.8534,18.7685171 159.383471,13.9749507 159.531819,13.5122654 L159.5434,13.4762 C159.5394,13.4752 159.5404,13.4722 159.5414,13.4722 C159.6114,13.3062 159.4384,13.0762 159.1534,12.9542 C158.8714,12.8342 158.5844,12.8682 158.5134,13.0332 C158.5134,13.0332 157.9614,15.0302 157.3154,17.0022 C156.5394,19.3722 156.1864,20.0722 156.0594,20.2892 C155.8754,20.6042 155.1314,20.7462 154.8394,20.1682 C154.4284,19.3572 154.1014,18.5442 153.5034,16.7252 C152.9344,14.9982 152.1744,12.1522 152.1744,12.1522 C152.1364,11.9772 151.8624,11.8862 151.5594,11.9492 C151.2574,12.0102 151.0434,12.2062 151.0784,12.3802 C151.0784,12.3822 151.0794,12.3832 151.0794,12.3842 L151.0794,12.3842 C151.0764,12.3842 152.0134,15.5532 152.5534,17.8312 C153.3054,21.0022 153.2034,22.0742 153.2034,22.0742 C153.2034,22.7852 152.5504,22.7802 152.2924,22.5662 C151.8564,22.2052 147.9374,18.1222 147.9374,18.1222 C147.9374,18.1222 147.9354,18.1232 147.9334,18.1262 C147.9264,18.1172 147.9214,18.1072 147.9114,18.0992 C147.7744,17.9852 147.5034,18.0832 147.3034,18.3202 C147.1074,18.5562 147.0564,18.8422 147.1934,18.9572 C147.2004,18.9632 147.2104,18.9652 147.2164,18.9692 L147.2164,18.9692 C147.9954,19.7212 150.7604,21.8892 151.7824,25.3232 C152.7234,28.4772 152.4124,30.5312 152.1884,31.8342 C151.8894,33.5692 150.1234,33.2932 149.4704,32.6792 C145.8054,29.2372 142.8604,21.5562 141.3124,17.6222 C141.2544,17.4532 140.9704,17.3962 140.6784,17.4972 C140.3864,17.5972 140.1954,17.8142 140.2544,17.9852 C142.4894,23.2522 142.3894,25.1412 142.4414,25.7622 C142.4584,26.1012 142.3344,26.4522 141.6884,26.4142 C140.9874,26.4282 137.4754,25.0002 134.5084,23.7302 C134.4954,23.7212 134.4844,23.7112 134.4704,23.7052 C134.4624,23.7022 134.4524,23.7022 134.4424,23.7002 C134.4364,23.6972 134.4264,23.6952 134.4184,23.6902 C134.4174,23.6922 134.4154,23.6952 134.4154,23.6972 C134.2564,23.6832 134.0674,23.8572 133.9704,24.1182 C133.8634,24.4072 133.9124,24.6922 134.0794,24.7552 C134.0824,24.7562 134.0874,24.7562 134.0874,24.7562 C134.0914,24.7592 134.0934,24.7632 134.0964,24.7662 C135.0144,25.2092 151.3334,30.3592 151.3334,44.9962 C151.3334,45.0002 151.3324,45.0042 151.3324,45.0082 C151.3414,45.1672 151.3494,45.3272 151.3494,45.4872 C151.3494,49.6652 148.7164,52.8122 144.5374,52.8122 L144.5374,52.8122 L127.8254,52.8122 L127.8254,0.0002 L180.6394,0.0002 Z M171.3154,29.9152 C168.828067,29.4625333 167.101213,30.2180978 166.882021,30.3208516 L166.8584,30.3322 C166.8584,30.3322 168.2294,31.8232 170.8814,32.3042 C173.5334,32.7862 175.3464,31.8732 175.3464,31.8732 C175.3464,31.8732 173.9834,30.4002 171.3154,29.9152 Z M141.4624,29.8362 C141.4624,29.8362 139.6704,28.9352 137.0054,29.4202 C134.3364,29.9052 132.9774,31.3772 132.9774,31.3772 C132.9774,31.3772 134.7874,32.2912 137.4384,31.8102 C139.907503,31.3614414 141.267071,30.0371893 141.442853,29.8566682 Z M163.6734,23.5202 C163.6734,23.5202 161.8024,24.3022 160.4454,26.6312 C159.0904,28.9622 159.3344,30.9722 159.3344,30.9722 C159.3344,30.9722 161.1824,30.1952 162.5454,27.8542 C163.9074,25.5102 163.6734,23.5202 163.6734,23.5202 Z M145.7674,23.5202 C145.7674,23.5202 145.5254,25.5332 146.8794,27.8632 C148.2354,30.1902 150.1074,30.9722 150.1074,30.9722 C150.1074,30.9722 150.3434,28.9812 148.9794,26.6412 C147.6154,24.2982 145.7674,23.5202 145.7674,23.5202 Z M178.0294,27.1812 C178.0294,27.1812 176.2364,26.2802 173.5684,26.7652 C170.9024,27.2502 169.5434,28.7222 169.5434,28.7222 C169.5434,28.7222 171.3524,29.6372 174.0044,29.1542 C176.473503,28.7073034 177.833937,27.382313 178.00984,27.2016812 Z M135.1104,26.2692 C132.6212,25.8193333 130.894222,26.5724711 130.675022,26.6748889 L130.6514,26.6862 C130.6514,26.6862 132.0254,28.1772 134.6754,28.6612 C137.3274,29.1402 139.1374,28.2262 139.1374,28.2262 C139.1374,28.2262 137.7774,26.7542 135.1104,26.2692 Z M175.4454,19.6322 C175.4454,19.6322 173.4324,19.8742 171.4904,21.7432 C169.5494,23.6132 169.2334,25.6162 169.2334,25.6162 C169.2334,25.6162 171.2234,25.3732 173.1744,23.4912 C175.1254,21.6132 175.4454,19.6322 175.4454,19.6322 Z M164.8404,19.1452 C164.8404,19.1452 162.8594,19.4502 160.9674,21.3902 C159.0764,23.3312 158.8224,25.3202 158.8224,25.3202 C158.8224,25.3202 160.8264,25.0152 162.7074,23.0872 C164.467045,21.2817161 164.801103,19.4044716 164.836884,19.1697615 Z M144.813515,19.1461968 C144.8074,19.1452 145.0594,21.1572 146.9404,23.0872 C148.8224,25.0152 150.8254,25.3202 150.8254,25.3202 C150.8254,25.3202 150.5724,23.3312 148.6794,21.3902 C146.7884,19.4502 144.8074,19.1452 144.8074,19.1452 Z M137.0774,21.3552 C134.7274,20.0072 132.7374,20.2572 132.7374,20.2572 C132.7374,20.2572 133.5324,22.1212 135.8714,23.4622 C138.2074,24.8032 140.2194,24.5472 140.2194,24.5472 C140.2194,24.5472 139.4284,22.7042 137.0774,21.3552 Z M169.6544,14.5532 C169.6544,14.5532 167.9404,15.6362 166.9924,18.1592 C166.0414,20.6792 166.6174,22.6242 166.6174,22.6242 C166.6174,22.6242 168.3114,21.5502 169.2644,19.0132 C170.2194,16.4792 169.6544,14.5532 169.6544,14.5532 Z M135.0144,14.9982 C135.0144,14.9982 135.1874,17.0182 136.9904,19.0182 C138.7954,21.0222 140.7854,21.4062 140.7854,21.4062 C140.7854,21.4062 140.6104,19.4092 138.7964,17.3952 C136.9824,15.3832 135.0144,14.9982 135.0144,14.9982 Z M142.4834,12.3572 C142.4834,12.3572 141.4984,14.1302 141.8754,16.7972 C142.2534,19.4642 143.6904,20.8942 143.6904,20.8942 C143.6904,20.8942 144.6604,19.1392 144.2804,16.4582 C143.9004,13.7732 142.4834,12.3572 142.4834,12.3572 Z M167.9124,11.6002 C167.9124,11.6002 166.0354,12.3742 164.6704,14.6962 C163.3044,17.0192 163.5394,19.0322 163.5394,19.0322 C163.5394,19.0322 165.3894,18.2612 166.7644,15.9282 C168.1374,13.5912 167.9124,11.6002 167.9124,11.6002 Z M148.3064,10.4682 C148.3064,10.4682 147.7484,12.4172 148.7214,14.9292 C149.6924,17.4422 151.4174,18.5082 151.4174,18.5082 C151.4174,18.5082 151.9624,16.5812 150.9854,14.0522 C150.0074,11.5272 148.3064,10.4682 148.3064,10.4682 Z M163.0494,10.3342 C163.0494,10.3342 161.2524,11.2742 160.1024,13.7122 C158.9534,16.1482 159.3674,18.1322 159.3674,18.1322 C159.3674,18.1322 161.1434,17.1982 162.3004,14.7482 C163.380884,12.4562645 163.09529,10.5896422 163.053942,10.3583276 Z M143.7244,10.3632 C143.7244,10.3632 143.5264,12.3792 144.9334,14.6772 C146.3404,16.9752 148.2294,17.7162 148.2294,17.7162 C148.2294,17.7162 148.4214,15.7222 147.0054,13.4102 C145.5914,11.0992 143.7244,10.3632 143.7244,10.3632 Z M157.5324,7.6552 C157.5324,7.6552 156.1054,9.0952 155.7504,11.7672 C155.3954,14.4382 156.3934,16.2022 156.3934,16.2022 C156.3934,16.2022 157.7994,14.7722 158.1584,12.0882 C158.5164,9.4022 157.5324,7.6552 157.5324,7.6552 Z M153.0684,6.8722 C153.0684,6.8722 152.0954,8.6512 152.4934,11.3152 C152.8884,13.9802 154.3374,15.4002 154.3374,15.4002 C154.3374,15.4002 155.2934,13.6392 154.8954,10.9602 C154.4964,8.2782 153.0684,6.8722 153.0684,6.8722 Z" id="Combined-Shape"></path>
        </g>
    </g>
</svg>